<svg width="35" height="35" viewBox="0 0 35 35" fill="none" xmlns="http://www.w3.org/2000/svg">
<path d="M17.5 2.9165C9.45874 2.9165 2.91666 9.45859 2.91666 17.4998C2.91666 21.1763 4.29478 24.529 6.54791 27.0986C8.35624 29.3153 11.3108 31.5698 15.9381 31.9957C16.9757 32.1105 18.0228 32.1105 19.0604 31.9957C23.6892 31.5698 26.6423 29.3138 28.4506 27.0986C30.7906 24.4485 32.0824 21.0352 32.0833 17.4998C32.0833 9.45859 25.5412 2.9165 17.5 2.9165ZM6.86728 12.7223C7.09187 12.8536 7.31645 12.9878 7.53228 13.1248C8.10978 13.4894 8.68582 13.854 9.4077 14.1282C10.1281 14.4009 10.9944 14.5832 12.1479 14.5832C13.3029 14.5832 14.1692 14.4009 14.891 14.1267C15.6129 13.8525 16.1904 13.4894 16.7679 13.1248C17.3454 12.7603 17.9229 12.3957 18.6448 12.1215C19.3652 11.8488 20.2314 11.6665 21.3864 11.6665C22.5415 11.6665 23.4077 11.8488 24.1281 12.123C24.85 12.3957 25.4275 12.7603 26.005 13.1248C26.5825 13.4894 27.16 13.854 27.8819 14.1282C28.1415 14.2259 28.4273 14.3061 28.7292 14.3775C29.0077 15.3721 29.1667 16.4163 29.1667 17.4998C29.1667 18.7292 28.9727 19.9119 28.6198 21.0246C28.2392 21.309 27.5508 21.7159 26.32 22.1271C25.1985 22.5005 23.8817 22.795 22.4044 23.005C19.1488 23.4411 15.8497 23.4411 12.5942 23.005C11.1169 22.795 9.79999 22.5005 8.67853 22.1271C7.4477 21.7159 6.75937 21.309 6.37874 21.0246C5.50965 18.292 5.6837 15.3342 6.86728 12.7223Z" fill="#BBBBBB"/>
<path d="M12.3958 20.4165C13.604 20.4165 14.5833 19.4371 14.5833 18.229C14.5833 17.0209 13.604 16.0415 12.3958 16.0415C11.1877 16.0415 10.2083 17.0209 10.2083 18.229C10.2083 19.4371 11.1877 20.4165 12.3958 20.4165Z" fill="#BBBBBB"/>
<path d="M22.6042 20.4165C23.8123 20.4165 24.7917 19.4371 24.7917 18.229C24.7917 17.0209 23.8123 16.0415 22.6042 16.0415C21.396 16.0415 20.4167 17.0209 20.4167 18.229C20.4167 19.4371 21.396 20.4165 22.6042 20.4165Z" fill="#BBBBBB"/>
</svg>
