<?xml version="1.0" encoding="utf-8"?>
<!-- Generator: Adobe Illustrator 17.1.0, SVG Export Plug-In . SVG Version: 6.00 Build 0)  -->
<!DOCTYPE svg PUBLIC "-//W3C//DTD SVG 1.1//EN" "http://www.w3.org/Graphics/SVG/1.1/DTD/svg11.dtd">
<svg version="1.1" id="Capa_1" xmlns="http://www.w3.org/2000/svg" xmlns:xlink="http://www.w3.org/1999/xlink" x="0px" y="0px"
	 viewBox="0 0 180.8 233.7" enable-background="new 0 0 180.8 233.7" xml:space="preserve">
<g>
	<path fill="#FFFFFF" stroke="#145093" stroke-width="7.3844" d="M90.7,5.1c-25.9,23.3-55.9,27.1-87,27.2v112.4
		c8.2,113.8,163.7,113.8,173.5,0L177,32.3C145.9,32.1,115.4,29,90.7,5.1z"/>
	<path fill="none" stroke="#145093" stroke-width="3.6916" d="M90.2,81.7c34.1,0,62,28,62,62.2s-27.9,62.2-62,62.2s-62-28-62-62.2
		C28.2,109.7,56.1,81.7,90.2,81.7z"/>
	<path fill="#145093" stroke="#145093" stroke-width="3.6916" d="M31.7,123.5h116.9c-11.3-27.5-31.5-40.4-59.4-41.6
		C60.9,83.2,42.3,97.9,31.7,123.5z"/>
	<path fill="#145093" stroke="#145093" stroke-width="3.6916" d="M31.6,163.7h117.3c-9.7,25.7-29.3,40.4-58.5,42.3
		C60.6,205.6,40,187.2,31.6,163.7z"/>
	<polygon fill="#FFFFFF" stroke="#FFFFFF" stroke-width="0.2205" points="59.3,127 90.7,73.8 121.4,127 	"/>
	<g>
		<g>
			<polygon fill="#00BBEE" stroke="#00BBEE" stroke-width="0.2205" points="85.4,135 87.4,136.4 84.5,145.1 78.2,148.6 73.8,148.6 
							"/>
			<polygon fill="#00BBEE" stroke="#00BBEE" stroke-width="0.2205" points="83,131.1 84.2,133 68.4,146.5 57,148.6 56.8,142.3 			
				"/>
			<polygon fill="#00BBEE" stroke="#00BBEE" stroke-width="0.2205" points="58.9,134 82.1,129.4 82.1,127.8 62.9,126.3 			"/>
			<polygon fill="#00BBEE" stroke="#00BBEE" stroke-width="0.2205" points="67.2,122.8 82.6,125.9 83.2,124.6 71.1,118.6 			"/>
			<path fill="#00BBEE" stroke="#00BBEE" stroke-width="0.2205" d="M68.3,111l15.8,12.6l1.7-1.6l-13.2-16.6
				C72.5,105.4,68.1,111.1,68.3,111z"/>
			<polygon fill="#00BBEE" stroke="#00BBEE" stroke-width="0.2205" points="86.7,121.3 88.6,120.6 80.7,92.6 75.5,100.2 			"/>
		</g>
		<g>
			<polygon fill="#00BBEE" stroke="#00BBEE" stroke-width="0.2205" points="95.6,135 93.5,136.4 97.2,147.7 102.6,148.6 
				107.1,148.6 			"/>
			<polygon fill="#00BBEE" stroke="#00BBEE" stroke-width="0.2205" points="97.9,131.1 96.6,133 114.8,148.2 123.9,148.6 
				124.1,142.3 			"/>
			<polygon fill="#00BBEE" stroke="#00BBEE" stroke-width="0.2205" points="121.9,134 98.7,129.4 98.7,127.8 117.8,126.3 			"/>
			<polygon fill="#00BBEE" stroke="#00BBEE" stroke-width="0.2205" points="113.8,122.8 98.2,125.9 97.7,124.6 109.7,118.6 			"/>
			<path fill="#00BBEE" stroke="#00BBEE" stroke-width="0.2205" d="M112.6,111l-15.8,12.6l-1.7-1.6l13.2-16.6
				C108.3,105.4,112.9,111.1,112.6,111z"/>
			<polygon fill="#00BBEE" stroke="#00BBEE" stroke-width="0.2205" points="93.9,121.3 92.4,120.6 100.3,92.6 105.3,100.2 			"/>
		</g>
		<g>
			<polygon fill="#00BBEE" stroke="#00BBEE" stroke-width="0.2205" points="89.3,137 91.3,137.2 92.9,148.6 87.6,148.6 			"/>
			<polygon fill="#00BBEE" stroke="#00BBEE" stroke-width="0.2205" points="86.4,81 89.8,120.4 91.2,120.4 94.3,80.9 90.7,72.6 			
				"/>
		</g>
	</g>
	<path fill="none" stroke="#145093" stroke-width="3.3222" d="M126.7,150.6l-73.5,0.1c-0.4-1.9-0.5-4-0.5-6.1
		c0-20.7,16.9-37.5,37.5-37.5s37.3,16.7,37.3,37.5C127.4,147.1,127.2,148.2,126.7,150.6z"/>
	<path fill="none" stroke="#EA212E" stroke-width="3.3222" d="M122.3,150.5L58,150.4c-0.1-1.2-0.4-4.7-0.4-5.7
		c0-18,14.6-32.5,32.5-32.5s32.5,14.5,32.5,32.5C122.6,145.7,122.3,149.3,122.3,150.5z"/>
	<path fill="none" stroke="#009650" stroke-width="3.3222" d="M124.8,150.1H55.4c-0.1-1.3-0.4-4.1-0.4-5.3c0-19.3,15.7-35,35-35
		s35,15.7,35,35C125.2,146.2,125,148.7,124.8,150.1z"/>
	<polygon fill="#FFFFFF" stroke="#FFFFFF" stroke-width="0.2205" points="48.3,148.2 32.3,176.6 149.8,176.6 134.2,148.2 	"/>
	<g>
		<g>
			<g>
				<line fill="none" stroke="#145093" stroke-width="2.0514" x1="43.2" y1="155.3" x2="137.5" y2="155.2"/>
			</g>
		</g>
		<g>
			<g>
				<line fill="none" stroke="#145093" stroke-width="2.0514" x1="45" y1="152.1" x2="136.3" y2="152.1"/>
			</g>
		</g>
		<g>
			<g>
				<line fill="none" stroke="#145093" stroke-width="2.0514" x1="46.5" y1="148.7" x2="134.5" y2="148.7"/>
			</g>
		</g>
	</g>
	<path fill="#FFFFFF" stroke="#FFFFFF" stroke-width="0.2205" d="M90.4,119.3c4.9,0,9.1,4,9.1,9.1c0,5.1-4.1,9.1-9.1,9.1
		c-5.1,0-9.1-4-9.1-9.1C81.3,123.3,85.5,119.3,90.4,119.3z"/>
	<g>
		<polygon fill="#145093" points="46.7,208.3 52.4,198.7 54.4,199.9 54.4,208.6 58.3,202.4 60.1,203.3 54.3,212.9 52.4,211.7 
			52.2,203.1 48.7,209.4 		"/>
		<polygon fill="#145093" points="56.5,213.8 61,203.7 62.9,204.7 58.4,214.6 		"/>
		<path fill="#145093" d="M68.4,214l1.8,1.4c-0.6,1-1.7,1.7-2.5,2.1c-0.9,0.3-1.9,0.3-3.1-0.1c-1.4-0.5-2.3-1.4-2.9-2.7
			s-0.5-2.9,0-4.3c0.5-1.7,1.7-2.9,2.9-3.6c1.3-0.5,2.6-0.6,4-0.3c1.3,0.5,2.2,1.2,2.9,2.3c0.4,0.5,0.5,1.4,0.5,2.2l-2.3-0.3
			c0.1-0.5-0.1-1-0.4-1.7c-0.3-0.5-0.6-0.6-1.3-0.9s-1.6-0.3-2.2,0.3c-0.6,0.5-1.3,1.3-1.7,2.5c-0.5,1.3-0.5,2.5-0.3,3.1
			c0.3,0.8,0.8,1.3,1.7,1.6c0.5,0.3,1.2,0.3,1.7-0.1C67.3,215.1,67.9,214.7,68.4,214z"/>
		<g>
			<g>
				<polygon fill="#145093" points="76,215.7 76,217.5 77.7,217.9 78.2,220.6 80.7,221 78.5,209.4 76.2,208.9 76,209.1 76,213 
					76.8,211.7 77.5,216 				"/>
				<polygon fill="#145093" points="76,213 76,209.1 69.7,219 72,219.5 73.4,217.1 76,217.5 76,215.7 74.5,215.3 				"/>
			</g>
		</g>
		<g>
			<g>
				<path fill="#145093" d="M86.1,215.1l0.5,2.5c0.3,0.3,0.5,0.8,1,1.6l1.6,2.6l2.6,0.1l-1.2-2.2c-0.5-0.9-0.9-1.6-1.3-1.8
					c-0.4-0.4-0.6-0.6-1.2-0.9c0.9-0.1,1.7-0.5,2.2-0.9c0.5-0.5,0.6-1.3,0.6-2.1c0.1-0.5-0.1-1.3-0.5-1.7c-0.3-0.5-0.6-0.9-1.2-1
					c-0.5-0.3-1.4-0.5-2.5-0.5h-0.4l-0.4,1.8c0.5,0,1,0.1,1.2,0.1c0.5,0.1,1,0.5,1.2,0.6c0.3,0.3,0.4,0.5,0.3,0.9
					c0,0.4-0.1,0.5-0.3,0.8c-0.3,0.3-0.5,0.5-0.6,0.5C86.7,215.2,86.9,215.2,86.1,215.1z"/>
				<path fill="#145093" d="M87.2,212l-0.3-1.7l-4.3-0.1l-0.5,11l2.2,0.1l0.1-4.5H85c0.5,0,0.5,0.1,1,0.3c0.3,0.1,0.6,0.5,0.9,0.6
					c0.1,0,0.4,0.1,0.4,0.1l0.1-2.6c-0.3,0-1-0.1-1.2-0.1l-1.7-0.1l0.1-2.9h1.7C86.7,211.8,87.1,212.1,87.2,212z"/>
			</g>
		</g>
		<g>
			<g>
				<polygon fill="#145093" points="96.9,216.6 96.9,218.6 99.4,218.4 100.5,220.8 102.9,220.6 97.6,210 96.9,210.1 96.9,213.5 
					98.5,216.6 				"/>
				<polygon fill="#145093" points="96.9,213.5 96.9,210.1 95.2,210.3 92,221.7 94.2,221.4 94.8,218.8 96.9,218.6 96.9,216.6 
					95.4,216.9 96.5,212.7 				"/>
			</g>
		</g>
		<path fill="#145093" d="M108.3,215.1l-0.5-1.8l4.7-1l0.9,4.1c-0.4,0.5-0.9,1-1.7,1.7c-0.8,0.5-1.7,0.9-2.6,1
			c-1.2,0.3-2.2,0.3-3.1,0c-0.9-0.3-1.7-0.8-2.5-1.7c-0.5-0.8-1-1.7-1.3-2.9c-0.3-1-0.3-2.2,0.1-3.1c0.3-1,0.6-1.8,1.7-2.6
			c0.5-0.5,1.4-0.9,2.5-1c1.4-0.4,2.5-0.3,3.4,0.1c0.9,0.5,1.7,1,2.1,2.1l-2.1,0.9c-0.3-0.5-0.5-0.8-1.2-1c-0.5-0.3-1-0.3-1.7-0.1
			c-0.9,0.3-1.7,0.6-2.1,1.4c-0.5,0.8-0.5,1.7-0.3,2.9c0.3,1.3,0.8,2.2,1.6,2.9c0.6,0.5,1.7,0.6,2.6,0.5c0.5-0.1,0.9-0.3,1.3-0.5
			c0.5-0.3,0.8-0.5,1-0.9l-0.4-1.4L108.3,215.1z"/>
		<path fill="#145093" d="M111.4,206.9l2.1-0.8l2.2,5.4c0.4,0.9,0.5,1.4,0.6,1.7c0.3,0.4,0.5,0.5,1,0.6c0.5,0.1,0.9,0.1,1.6-0.3
			c0.5-0.3,1-0.5,1.3-0.9c0.3-0.4,0.3-0.6,0.1-1c-0.1-0.5-0.3-0.9-0.5-1.7l-2.3-5.7l2.1-0.8l2.2,5.3c0.5,1.3,0.8,2.1,0.9,2.7
			c0.1,0.6,0.1,1-0.1,1.7c-0.3,0.5-0.5,0.9-0.9,1.4c-0.5,0.5-1,0.8-1.8,1c-1,0.5-1.7,0.5-2.5,0.5c-0.5,0-1.2-0.1-1.7-0.5
			c-0.5-0.3-0.8-0.5-1-0.9c-0.5-0.5-0.8-1.4-1.3-2.6L111.4,206.9z"/>
		<g>
			<g>
				<path fill="#145093" d="M127,212.2L127,212.2L127,212.2z"/>
				<polygon fill="#145093" points="127,207.2 127,209.2 130.2,207.2 132.3,208.9 134.5,207.7 127,202 127,204.8 128.7,206 				"/>
				<polygon fill="#145093" points="127,204.8 127,202 125,200.4 123,201.7 124.9,213.4 127,212.2 127,212.2 126.6,209.5 127,209.2 
					127,207.2 126.1,207.6 125.3,203.3 				"/>
			</g>
		</g>
	</g>
	<g>
		<g>
			<g>
				<path fill="none" stroke="#145093" stroke-width="2.0514" d="M142.5,163.9c-1.3,0.1-2.3-1.7-3.5-1.7c-1.7-0.1-2.9,1.7-4.3,1.7
					c-1.4-0.1-2.7-1.7-4-1.7c-1.7,0.1-2.9,1.7-4.1,1.7c-1.7-0.1-3.4-1.7-4.9-1.7c-1.7,0-2.9,1.7-4.4,1.7c-1.7-0.1-3.2-1.7-4.7-1.7
					c-1.4,0.1-2.9,1.7-4.1,1.7c-1.7,0-3.2-1.7-4.7-1.7c-1.9,0-3.4,1.7-4.9,1.7c-1.6-0.1-3.1-1.7-4.5-1.7c-1.7,0.1-2.9,1.7-4.1,1.7
					c-1.7,0-3.5-1.7-5.2-1.7s-3.2,1.7-4.9,1.7c-1.6,0.1-2.9-1.7-4.3-1.7c-1.7,0-2.9,1.7-4.1,1.7c-1.4,0-2.9-1.7-4.3-1.7
					c-1.6,0-2.7,1.7-4,1.7c-1.7,0.1-3.4-1.7-4.9-1.7c-1.9,0.1-3,1.7-4.5,1.7c-1.7,0.1-2.9-1.6-4.3-1.7c-1.7,0-3.1,1.7-4.8,1.6
					c-2.1,0.3-3.6-1.6-5.2-1.6c-1.2,0-1.7,1-2.7,1.7"/>
			</g>
		</g>
		<g>
			<g>
				<path fill="none" stroke="#145093" stroke-width="2.0514" d="M36.4,167.8c0.9-0.5,1.6-1.7,2.7-1.6c1.7,0,3.1,1.7,5.2,1.4
					c1.7,0.3,3.1-1.6,4.8-1.4c1.7,0.1,2.7,1.7,4.3,1.7c1.7,0,2.9-1.7,4.5-1.7c1.7-0.1,3.2,1.7,4.9,1.6c1.4,0,2.6-1.7,4-1.7
					c1.6,0,2.9,1.7,4.3,1.7c1.4-0.1,2.6-1.7,4.1-1.7c1.4-0.1,2.9,1.7,4.3,1.7c1.7-0.1,3.2-1.7,4.9-1.7s3.5,1.7,5.2,1.7
					c1.4-0.1,2.6-1.7,4.1-1.7c1.4,0.1,3.1,1.7,4.5,1.7c1.7-0.1,3-1.7,4.9-1.7c1.6,0.1,3.1,1.7,4.7,1.7c1.4,0,2.9-1.7,4.1-1.7
					c1.7,0.1,3.1,1.7,4.7,1.7c1.7,0,2.9-1.7,4.4-1.7c1.7,0,3.2,1.7,4.9,1.7c1.4-0.1,2.6-1.7,4.1-1.7c1.4,0,2.7,1.7,4,1.7
					c1.6,0,2.9-1.7,4.3-1.7c1.2,0,2.3,1.7,3.5,1.7c1,0.1,1.6-1,2.3-1.7"/>
			</g>
		</g>
		<g>
			<g>
				<path fill="none" stroke="#145093" stroke-width="2.0514" d="M146,171.6c-1.3,0.5-2.2,1.3-3.6,1.3c-1.3,0.1-2.3-1.7-3.5-1.7
					c-1.7-0.1-2.9,1.7-4.3,1.7c-1.4-0.1-2.7-1.7-4-1.7c-1.7,0.1-2.9,1.7-4.1,1.7c-1.7-0.1-3.4-1.7-4.9-1.7c-1.7,0-2.9,1.7-4.4,1.7
					c-1.7-0.1-3.2-1.7-4.7-1.7c-1.4,0.1-2.9,1.7-4.1,1.7c-1.7,0-3.2-1.7-4.7-1.7c-1.9,0.1-3.4,1.7-4.9,1.7c-1.6-0.1-3.1-1.7-4.5-1.7
					c-1.7,0.1-2.9,1.7-4.1,1.7c-1.7,0-3.5-1.7-5.2-1.7c-1.7-0.1-3.2,1.7-4.9,1.7c-1.6,0.1-2.9-1.7-4.3-1.6c-1.7-0.1-2.9,1.6-4.1,1.7
					c-1.4,0-2.9-1.7-4.3-1.7c-1.4,0-2.7,1.7-4,1.7c-1.7,0.1-3.4-1.7-4.9-1.7c-1.9,0.1-3,1.7-4.5,1.7c-1.7,0.1-2.9-1.4-4.3-1.6
					c-1.7-0.1-3.1,1.7-4.8,1.4c-2.1,0.3-3.6-1.6-5.2-1.6c-1,0.5-2.2,1.7-3.2,1.6c-1.4-0.1-1.4-1.2-2.5-1.7"/>
			</g>
		</g>
	</g>
	<path fill="#FFFFFF" stroke="#FFFFFF" stroke-width="0.2205" d="M69.6,150.4h50.2l5.6,6.7H71.6C71.6,157.1,69.8,150.6,69.6,150.4z"
		/>
	<g>
		<path fill="#009650" stroke="#4A6E6D" stroke-width="0.2205" d="M42.3,156c6-0.5,13.1-5.4,18.8-12.7c1.9-3.6,6.5-3.8,7.6,0
			c2.9,8.6,7.4,14,14.3,15c-3.5-1.8-6.4-4.1-9.1-7.5c2.1-1.6,3.6-3.2,5.1-5.6c2.3-4.1,4.9-4.1,6.6,0c3.2,6.9,6.7,11.3,10.9,12.2
			c-2.9-1.9-5.2-4.3-7.3-7.8c1-1.3,1.9-2.7,2.9-4c1.7-3.5,3.4-3.4,5.2,0c4.4,6,8.2,9.5,11.3,11.4c-2.3-2.1-4.3-4.3-5.8-7.3
			c1.3-1.3,2.1-2.5,2.9-3.6c1.7-3.5,3.5-3.9,5.7,0c3.1,4.5,6.6,8,10.6,10.6c-2.9-2.6-5.2-5.3-6.5-8c0.6-0.5,1.2-0.8,1.6-1.3
			c1.7-3.1,3.4-2.5,5.4,0c4.9,5.8,10.9,11,15.8,9.9l1,3.2L40.6,160L42.3,156z"/>
		<g>
			<g>
				<path fill="#009650" stroke="#FFFFFF" stroke-width="2.2146" d="M142.5,160.6c-1.3,0-2.3-1.3-3.5-1.3c-1.7-0.1-2.9,1.3-4.3,1.3
					c-1.4-0.1-2.7-1.2-4-1.2c-1.7,0.1-2.9,1.3-4.1,1.3c-1.7-0.1-3.4-1.3-4.9-1.3c-1.7,0-2.9,1.3-4.4,1.3c-1.7-0.1-3.2-1.3-4.7-1.4
					c-1.4,0.1-2.9,1.3-4.1,1.4c-1.7,0-3.2-1.4-4.7-1.4c-1.9,0-3.2,1.4-4.9,1.4c-1.6-0.1-3.1-1.4-4.4-1.6c-1.7,0.1-2.9,1.4-4.1,1.6
					c-1.7,0-3.4-1.6-5.1-1.6c-1.7,0-3.4,1.4-4.9,1.4s-2.9-1.7-4.3-1.7c-1.7,0-2.9,1.4-4.1,1.6c-1.4-0.1-2.9-1.6-4.3-1.6
					c-1.6,0-2.7,1.4-4,1.4c-1.7,0.1-3.4-1.6-4.9-1.4c-1.9,0.1-3,1.4-4.5,1.4c-1.7,0.1-2.9-1.3-4.3-1.4c-1.7,0-3.1,1.7-4.7,1.4
					c-2.2,0.1-3.8-1.4-5.2-1.4"/>
			</g>
		</g>
	</g>
	<path fill="#EA212E" stroke="#EA212E" stroke-width="0.2205" d="M91.2,135.3h-1.9c-0.1-1.3-0.5-2.2-1.2-2.9c-2.6-1.7-2.6-4.9-0.8-7
		c0.6-0.5,2.1-1.9,0.8-2.2c-1.4-0.3-1.3-1.7,0.4-1.9c4.5-0.5,6.1,2.9,6.4,9.7C92.4,130.8,91.3,132.6,91.2,135.3z"/>
	<polygon fill="none" stroke="#FAB960" stroke-width="5.1696" points="30.1,177.5 90.4,71.6 150.5,177.5 	"/>
</g>
<g>
	<g>
		<path fill="#0A5081" d="M19.5,75.6c-0.6,0.4-0.9,0.6-1.6,1c-2.5-3.6-3.8-5.6-6.2-9.2c0.9-0.6,1.4-0.9,2.3-1.6
			c2.3,2.3,3.5,3.4,5.8,5.7c-1.2-3.1-1.7-4.5-2.7-7.6c0.9-0.5,1.4-0.9,2.3-1.4c2.2,3.9,3.4,5.7,5.6,9.6c-0.6,0.4-0.9,0.5-1.6,0.9
			c-1.4-2.3-2.2-3.6-3.6-6c0.9,2.7,1.3,4.1,2.3,6.9c-0.5,0.3-0.8,0.5-1.3,0.8c-2.1-1.9-3.1-3-5.3-4.8C17.2,72.1,18,73.2,19.5,75.6z"
			/>
		<path fill="#0A5081" d="M28.2,70.4c-0.6,0.4-0.9,0.5-1.6,0.9c-2.2-3.9-3.2-5.8-5.4-9.6c0.6-0.4,1-0.6,1.7-0.9
			C25,64.6,26,66.5,28.2,70.4z"/>
		<path fill="#0A5081" d="M26.3,58.7c2.3,2.2,3.4,3.2,5.6,5.6c-1.3-2.7-1.9-4-3.2-6.7c0.6-0.4,1-0.5,1.8-0.9c1.9,4,2.9,6.1,4.8,10.1
			c-0.6,0.4-1,0.5-1.7,0.8c-2.2-2.1-3.2-3.1-5.4-5.2c1.3,2.6,1.9,3.8,3.2,6.4c-0.6,0.4-0.9,0.5-1.6,0.8c-2.1-3.9-3.1-5.8-5.2-9.9
			C25.1,59.4,25.5,59.1,26.3,58.7z"/>
		<path fill="#0A5081" d="M38.2,65.3c-0.6,0.3-1,0.4-1.7,0.8c-1.8-4-2.7-6.1-4.7-10.1c0.6-0.4,1-0.5,1.8-0.8
			C35.6,59.2,36.5,61.3,38.2,65.3z"/>
		<path fill="#0A5081" d="M44.1,60c0.3,0.8,0.3,1.4,0.1,2.1c-0.1,0.4-0.4,0.9-0.9,1.2c-0.3,0.1-0.5,0.4-0.9,0.5
			c-0.6,0.3-1.3,0.4-1.8,0.3c-0.5-0.1-0.9-0.3-1.3-0.6c-0.4-0.4-0.8-0.8-1-1.3c0.6-0.3,0.9-0.5,1.6-0.8c0.3,0.5,0.6,0.9,1,1
			c0.3,0.1,0.5,0.1,0.8,0c0.4-0.1,0.6-0.4,0.6-0.9c0-0.3,0-0.5-0.1-0.8c-0.1-0.4-0.5-0.8-1.2-1c-0.4-0.1-1.2-0.4-2.1-0.6
			c-0.8-0.3-1.4-0.5-1.8-0.8c-0.4-0.4-0.8-0.8-1-1.3c-0.4-0.9-0.4-1.8,0.1-2.6c0.3-0.5,0.8-0.9,1.6-1.2c0.6-0.3,1.3-0.4,1.8-0.3
			c0.4,0,0.8,0.3,1.2,0.5c0.4,0.3,0.6,0.6,0.9,1c-0.6,0.4-0.9,0.5-1.6,0.9c-0.3-0.4-0.5-0.6-0.8-0.8c-0.3-0.1-0.5-0.1-0.8,0
			c-0.4,0.1-0.5,0.4-0.6,0.6c0,0.3,0,0.5,0.1,0.8c0.1,0.5,0.6,0.9,1.3,1.2c0.3,0.1,0.6,0.3,1,0.4c0.5,0.1,0.9,0.3,1,0.3
			c0.5,0.3,1,0.5,1.4,0.8c0.1,0.1,0.4,0.3,0.4,0.4C43.8,59.4,44,59.6,44.1,60z"/>
		<path fill="#0A5081" d="M44.9,52.6c-0.8,0.3-1.2,0.4-1.9,0.6c-0.3-0.6-0.4-0.9-0.5-1.6c2.3-0.8,3.4-1.2,5.7-1.9
			c0.3,0.6,0.3,0.9,0.5,1.6c-0.8,0.3-1.2,0.4-1.9,0.6c1.2,3.6,1.8,5.3,3,8.9c-0.6,0.3-1,0.4-1.7,0.5C46.7,57.9,46.2,56.1,44.9,52.6z
			"/>
		<path fill="#0A5081" d="M52.8,59.9c-1.3-4.3-1.9-6.4-3.2-10.6c2.1-0.6,3.1-0.9,5.3-1.4c0.1,0.6,0.3,1,0.4,1.7
			c-1.3,0.4-2.1,0.5-3.4,0.9c0.4,1.2,0.5,1.7,0.8,2.9c0.9-0.3,1.4-0.4,2.5-0.6c0.1,0.6,0.3,1,0.4,1.7c-0.9,0.3-1.4,0.4-2.3,0.6
			c0.4,1.2,0.5,1.7,0.8,2.9c1.3-0.4,1.9-0.5,3.2-0.9c0.1,0.6,0.3,1,0.4,1.7C55.8,59.1,54.8,59.4,52.8,59.9z"/>
		<path fill="#0A5081" d="M59.2,46.8c1-0.3,1.8-0.1,2.5,0.3c0.5,0.4,0.9,0.9,1,1.7c0.1,0.6,0.3,0.9,0.4,1.6c0.1,0.8,0,1.4-0.5,2.2
			c0.9,1.8,1.4,2.7,2.3,4.5c-0.8,0.1-1.2,0.3-1.8,0.4c-0.8-1.6-1.2-2.3-1.9-3.9H61c-0.4,0.1-0.6,0.1-1,0.3c0.4,1.7,0.5,2.5,0.9,4
			c-0.6,0.1-1,0.3-1.7,0.4c-1-4.3-1.7-6.5-2.7-10.8C57.4,47.2,58,47.1,59.2,46.8z M60.9,49.1c-0.1-0.6-0.5-0.9-1.3-0.6
			c-0.4,0.1-0.6,0.1-1.2,0.3c0.4,1.4,0.5,2.1,0.8,3.5c0.4-0.1,0.6-0.1,1-0.3c0.3-0.1,0.5-0.3,0.6-0.4c0.1-0.3,0.3-0.5,0.1-0.8
			C61,50,61,49.8,60.9,49.1z"/>
		<path fill="#0A5081" d="M67.9,56.4c-0.6,0.1-1,0.1-1.7,0.3c-0.8-4.4-1.3-6.6-2.1-10.9c0.8-0.1,1.2-0.3,1.9-0.4
			C66.7,49.8,67.1,52,67.9,56.4z"/>
		<path fill="#0A5081" d="M70.6,44.5c0.8-0.1,1.6,0,2.2,0.5c0.6,0.4,1,1,1,1.8c0.3,2.5,0.4,3.6,0.8,6c0.1,0.8-0.1,1.4-0.6,1.9
			c-0.5,0.5-1,0.9-1.8,1c-0.8,0.1-1.4,0-2.1-0.5c-0.6-0.5-1-1-1.2-1.7c-0.4-2.3-0.6-3.6-1-6c-0.1-0.8,0.1-1.4,0.5-1.9
			C69.2,45,69.8,44.6,70.6,44.5z M72,46.9c0-0.3-0.1-0.5-0.4-0.6c-0.3-0.1-0.5-0.3-0.8-0.1c-0.3,0-0.5,0.1-0.8,0.4
			c-0.1,0.3-0.3,0.5-0.3,0.8c0.4,2.5,0.5,3.6,0.9,6c0,0.3,0.1,0.5,0.4,0.6c0.3,0.1,0.5,0.3,0.8,0.1c0.3,0,0.5-0.1,0.6-0.4
			c0.1-0.3,0.3-0.4,0.3-0.6C72.5,50.6,72.3,49.4,72,46.9z"/>
		<path fill="#0A5081" d="M82.8,52c0,0.8-0.3,1.4-0.6,1.9c-0.5,0.5-1.2,0.9-1.9,0.9C79,55,78.5,55,77.5,55.1
			c-0.4-4.4-0.6-6.6-1.2-11c1.2-0.1,1.8-0.1,3-0.3c0.8-0.1,1.6,0.1,2.2,0.6c0.6,0.5,0.9,1,1,1.8C82.5,48.5,82.6,49.6,82.8,52z
			 M79,53.1c0.4,0,0.6,0,1-0.1c0.3,0,0.5-0.1,0.6-0.4c0.1-0.3,0.3-0.4,0.3-0.6c-0.1-2.3-0.3-3.5-0.4-5.8c0-0.3-0.1-0.5-0.4-0.6
			c-0.3-0.1-0.5-0.3-0.8-0.3c-0.5,0-0.6,0-1.2,0.1C78.6,48.6,78.8,50.2,79,53.1z"/>
		<path fill="#0A5081" d="M84.5,54.6c-0.3-4.4-0.3-6.6-0.5-11.1c2.2-0.1,3.2-0.1,5.4-0.1c0,0.6,0,1,0,1.7c-1.4,0-2.1,0-3.5,0
			c0,1.2,0,1.8,0.1,3c1,0,1.6,0,2.5,0c0,0.6,0,1,0,1.7c-1,0-1.4,0-2.5,0c0,1.2,0,1.8,0.1,3c1.3,0,1.9,0,3.2,0c0,0.6,0,1,0,1.7
			C87.4,54.4,86.4,54.4,84.5,54.6z"/>
		<path fill="#0A5081" d="M94.7,54.6c-0.8,0-1.4-0.3-1.9-0.8c-0.5-0.5-0.8-1.2-0.8-1.9c0-2.5,0-3.6,0.1-6.1c0-0.8,0.3-1.4,0.9-1.8
			c0.6-0.5,1.3-0.8,2.2-0.8c0.8,0,1.6,0.3,2.1,0.9c0.5,0.5,0.8,1.2,0.8,1.9c0,0.5,0,0.8-0.1,1.3c-0.8,0-1.2,0-1.9-0.1
			c0-0.5,0-0.8,0-1.3c0-0.3-0.1-0.5-0.3-0.6C95.5,45,95.2,45,95,45c-0.3,0-0.5,0.1-0.8,0.3c-0.3,0.1-0.4,0.4-0.4,0.6
			c-0.1,2.5-0.1,3.6-0.1,6.1c0,0.3,0.1,0.5,0.3,0.6c0.1,0.1,0.4,0.3,0.6,0.3c0.3,0,0.5-0.1,0.8-0.3c0.3-0.1,0.3-0.4,0.4-0.6
			c0-0.9,0-1.3,0.1-2.2c-0.4,0-0.6,0-1,0c0-0.6,0-1,0-1.7c1.2,0,1.8,0.1,3,0.1c-0.1,1.6-0.1,2.3-0.3,3.9c0,0.8-0.4,1.3-0.9,1.8
			C96.1,54.4,95.4,54.6,94.7,54.6z"/>
		<path fill="#0A5081" d="M102.7,43.7c0.8,0.1,1.6,0.4,2.1,1c0.5,0.5,0.8,1.3,0.6,1.9c-0.3,2.5-0.4,3.6-0.6,6.1
			c-0.1,0.8-0.4,1.3-1,1.8c-0.6,0.5-1.3,0.6-2.1,0.5c-0.8-0.1-1.4-0.4-1.9-0.9c-0.5-0.5-0.8-1.2-0.6-1.9c0.1-2.5,0.3-3.6,0.4-6.1
			c0-0.8,0.4-1.3,1-1.8C101.2,43.8,101.8,43.7,102.7,43.7z M103.5,46.4c0-0.3,0-0.5-0.3-0.6c-0.1-0.3-0.4-0.3-0.8-0.4
			c-0.3,0-0.5,0-0.8,0.3c-0.3,0.3-0.4,0.4-0.4,0.6c-0.3,2.5-0.3,3.6-0.5,6.1c0,0.3,0,0.5,0.3,0.6c0.1,0.3,0.4,0.3,0.6,0.4
			c0.3,0,0.5,0,0.8-0.3c0.3-0.1,0.4-0.4,0.4-0.6C103.1,50,103.3,48.9,103.5,46.4z"/>
		<path fill="#0A5081" d="M106,55.4c0.5-4.4,0.8-6.6,1.4-11c1.2,0.1,1.7,0.3,2.9,0.4c0.8,0.1,1.4,0.4,1.9,0.8
			c0.5,0.4,0.8,0.9,0.9,1.6c0,0.4,0,0.8,0,1.2c-0.1,0.8-0.4,1.3-0.9,1.7c-0.3,0.1-0.6,0.4-0.6,0.4s0.6,0.5,0.9,1
			c0.1,0.3,0.3,0.6,0.3,1.2c0,0.3,0,0.5,0,0.8c-0.1,0.6-0.4,1.3-0.8,1.7c-0.3,0.4-0.6,0.6-1,0.8c-0.5,0.1-0.9,0.3-1.4,0.1
			C107.9,55.6,107.3,55.5,106,55.4z M108.8,49.1c0.3,0,0.5,0,0.8,0.1c0.5,0.1,1-0.1,1.3-0.5c0.1-0.1,0.1-0.4,0.3-0.6
			c0.1-0.5,0-0.8-0.3-1s-0.5-0.4-0.9-0.5c-0.3,0-0.5-0.1-0.8-0.1C109.1,47.4,109,48,108.8,49.1z M108.2,53.9c0.3,0,0.4,0,0.8,0.1
			c0.6,0.1,1-0.1,1.4-0.6c0.1-0.1,0.1-0.4,0.3-0.6c0.1-0.6,0-1-0.1-1.4c-0.1-0.3-0.5-0.5-0.9-0.5c-0.3,0-0.5-0.1-0.8-0.1
			C108.4,52,108.3,52.6,108.2,53.9z"/>
		<path fill="#0A5081" d="M113.4,56.5c0.8-4.4,1.2-6.6,2.1-10.9c2.2,0.4,3.2,0.6,5.3,1c-0.1,0.6-0.3,1-0.4,1.7
			c-1.4-0.3-2.1-0.4-3.4-0.8c-0.3,1.2-0.4,1.8-0.6,3c1,0.1,1.4,0.3,2.5,0.5c-0.1,0.6-0.3,1-0.4,1.7c-0.9-0.3-1.4-0.3-2.5-0.5
			c-0.3,1.2-0.4,1.8-0.6,3c1.3,0.3,1.9,0.4,3.2,0.6c-0.1,0.6-0.3,1-0.4,1.7C116.4,57,115.3,56.9,113.4,56.5z"/>
		<path fill="#0A5081" d="M125,47.7c1,0.3,1.7,0.8,2.1,1.3c0.3,0.5,0.4,1.2,0.1,1.9c-0.1,0.6-0.3,0.9-0.4,1.6
			c-0.3,0.8-0.6,1.3-1.4,1.7c0,2.1,0,3,0,5.1c-0.8-0.3-1.2-0.3-1.8-0.5c0-1.7,0-2.6,0-4.3h-0.1c-0.4-0.1-0.6-0.1-1-0.3
			c-0.4,1.7-0.6,2.5-1,4c-0.6-0.1-1-0.3-1.7-0.4c1-4.3,1.6-6.5,2.6-10.8C123.2,47.2,123.9,47.4,125,47.7z M125.4,50.6
			c0.1-0.6-0.1-1-0.8-1.2c-0.4-0.1-0.6-0.1-1.2-0.3c-0.4,1.4-0.5,2.1-0.9,3.5c0.4,0.1,0.6,0.1,1,0.3c0.3,0.1,0.5,0,0.8-0.1
			c0.3-0.1,0.4-0.3,0.5-0.5C125.2,51.5,125.3,51.2,125.4,50.6z"/>
		<path fill="#0A5081" d="M131.9,49.6c0.1,3.1,0.1,4.8,0.1,7.9c0.9-2.9,1.4-4.3,2.3-7.1c0.8,0.3,1,0.4,1.8,0.6
			c-1.4,4.1-2.2,6.4-3.6,10.5c-0.8-0.3-1-0.4-1.8-0.6c0-3-0.1-4.5-0.3-7.5c-0.9,2.7-1.3,4-2.1,6.7c-0.6-0.3-1-0.3-1.7-0.5
			c1.3-4.3,1.9-6.4,3.1-10.6C130.7,49.3,131.1,49.4,131.9,49.6z"/>
		<path fill="#0A5081" d="M137,60.5c-0.5,0.9-0.8,1.3-1.3,2.2c-0.6-0.3-1-0.4-1.7-0.6c2.3-3.9,3.5-5.8,5.8-9.7c1,0.4,1.6,0.5,2.5,1
			c-0.9,4.4-1.3,6.6-2.3,11c-0.6-0.3-1-0.4-1.7-0.8c0.3-1,0.4-1.6,0.5-2.6C138.1,60.9,137.7,60.8,137,60.5z M140.1,55.2
			c-0.9,1.6-1.3,2.3-2.2,3.9c0.5,0.3,0.8,0.3,1.3,0.5C139.6,57.8,139.7,57,140.1,55.2z"/>
		<path fill="#0A5081" d="M143.6,66.2c-0.8-0.4-1.2-0.8-1.6-1.6c-0.3-0.6-0.3-1.4,0-2.1c0.9-2.2,1.4-3.4,2.5-5.6
			c0.3-0.6,0.8-1.2,1.6-1.4c0.8-0.3,1.6-0.1,2.3,0.1c0.8,0.4,1.3,0.9,1.7,1.7c0.3,0.8,0.3,1.4,0,2.1c-0.3,0.5-0.4,0.6-0.5,1.2
			c-0.6-0.4-1-0.5-1.8-0.9c0.3-0.5,0.4-0.6,0.5-1.2c0.1-0.3,0.1-0.5,0-0.8c-0.1-0.3-0.3-0.5-0.6-0.6c-0.3-0.1-0.5-0.1-0.8-0.1
			c-0.3,0.1-0.5,0.3-0.5,0.5c-1,2.2-1.6,3.4-2.5,5.6c-0.1,0.3-0.1,0.5,0,0.8s0.3,0.4,0.5,0.5c0.3,0.1,0.5,0.1,0.8,0
			c0.3-0.1,0.5-0.3,0.5-0.5c0.3-0.5,0.4-0.8,0.6-1.4c0.6,0.4,1,0.5,1.7,0.8c-0.3,0.5-0.4,0.8-0.6,1.4c-0.3,0.6-0.9,1.2-1.6,1.3
			C145,66.6,144.4,66.5,143.6,66.2z"/>
		<path fill="#0A5081" d="M149.2,68.8c-0.6-0.4-0.9-0.5-1.6-0.8c1.9-4,3-6,4.9-10c0.6,0.4,1,0.5,1.7,0.9
			C152.3,62.9,151.2,64.8,149.2,68.8z"/>
		<path fill="#0A5081" d="M158.6,61.1c0.8,0.4,1.3,1,1.6,1.8c0.3,0.8,0.3,1.4-0.1,2.1c-1.3,2.1-1.8,3.1-3.1,5.2
			c-0.4,0.6-0.9,1-1.7,1.2c-0.8,0.1-1.4,0-2.2-0.4c-0.6-0.4-1.2-0.9-1.4-1.7c-0.3-0.8-0.3-1.4,0.1-2.1c1.2-2.2,1.7-3.2,2.9-5.3
			c0.4-0.6,0.9-1,1.7-1.2C157.2,60.5,157.8,60.7,158.6,61.1z M158.2,63.9c0.1-0.3,0.1-0.5,0-0.8c-0.1-0.3-0.3-0.5-0.5-0.6
			c-0.3-0.1-0.5-0.3-0.8-0.1c-0.3,0-0.5,0.3-0.6,0.4c-1.2,2.1-1.8,3.2-3,5.3c-0.1,0.3-0.1,0.5,0,0.8c0.1,0.3,0.3,0.5,0.5,0.6
			c0.3,0.1,0.5,0.1,0.8,0.1c0.3,0,0.5-0.3,0.6-0.4C156.4,67,157.1,66,158.2,63.9z"/>
		<path fill="#0A5081" d="M164.7,64.8c-0.6,3.1-1,4.7-1.9,7.6c1.7-2.5,2.5-3.8,4.1-6.2c0.6,0.4,1,0.6,1.7,1.2
			c-2.5,3.6-3.8,5.6-6.2,9.2c-0.6-0.4-1-0.6-1.7-1c0.8-3,1-4.4,1.7-7.4c-1.6,2.5-2.3,3.6-3.8,6.1c-0.6-0.4-0.9-0.5-1.6-0.9
			c2.3-3.8,3.5-5.7,5.8-9.5C163.5,64.2,163.9,64.4,164.7,64.8z"/>
	</g>
</g>
</svg>
